<svg width="1135" height="238" viewBox="0 0 1135 238" fill="none" xmlns="http://www.w3.org/2000/svg">
<path d="M368.9 216.42C364.9 216.42 361.96 219.42 361.96 223.34C361.96 227.26 364.9 230.26 368.9 230.26C372.9 230.26 375.84 227.26 375.84 223.34C375.84 219.42 372.9 216.42 368.9 216.42ZM368.9 228.38C366.02 228.38 364 226.3 364 223.34C364 220.38 366.02 218.3 368.9 218.3C371.78 218.3 373.8 220.38 373.8 223.34C373.8 226.3 371.78 228.38 368.9 228.38ZM380.001 229.02C380.881 230.12 382.061 230.26 382.521 230.26C384.521 230.26 386.601 228.56 386.601 225.74C386.601 223.08 384.721 221.36 382.501 221.36C381.641 221.36 380.721 221.64 380.001 222.5V221.58H378.041V234.58H380.001V229.02ZM382.261 223.12C383.681 223.12 384.601 224.32 384.601 225.82C384.601 227.28 383.681 228.5 382.261 228.5C381.041 228.5 379.881 227.6 379.881 225.84C379.881 224 381.041 223.12 382.261 223.12ZM392.666 221.58V224.7L390.126 221.58H387.766L391.026 225.42L387.446 230H389.886L392.426 226.62L392.666 226.9V230H394.626V226.9L394.866 226.62L397.406 230H399.846L396.266 225.42L399.526 221.58H397.166L394.626 224.7V221.58H392.666ZM405.187 221.36C402.647 221.36 400.687 223.2 400.687 225.8C400.687 228.38 402.647 230.26 405.187 230.26C407.727 230.26 409.687 228.38 409.687 225.8C409.687 223.2 407.727 221.36 405.187 221.36ZM405.187 228.5C403.647 228.5 402.687 227.44 402.687 225.82C402.687 223.9 403.967 223.12 405.187 223.12C406.407 223.12 407.687 223.9 407.687 225.82C407.687 227.44 406.727 228.5 405.187 228.5ZM411.732 230H413.692V226.5H417.172V230H419.132V221.58H417.172V224.7H413.692V221.58H411.732V230ZM421.615 221.58V230.64L427.375 225.1V230H429.335V220.82L423.575 226.36V221.58H421.615ZM431.81 221.58V230H433.77V226.86L434.09 226.54L436.89 230H439.37L435.49 225.26L439.17 221.58H436.57L433.77 224.58V221.58H431.81ZM440.658 221.58V230.64L446.418 225.1V230H448.378V220.82L442.618 226.36V221.58H440.658ZM451.573 221.58V224.88C451.573 225.86 451.453 226.6 451.233 227.1C450.973 227.64 450.473 228.14 449.693 228.2V232.4H451.493V230H457.373V232.4H459.173V228.2H457.893V221.58H451.573ZM455.933 228.2H452.473C453.013 227.8 453.453 227.08 453.453 225.62V223.38H455.933V228.2ZM461.29 223.76C461.53 223.5 461.79 223.34 462.03 223.2C462.41 223.02 462.73 222.96 463.13 222.96C463.39 222.96 463.77 222.96 464.07 223.18C464.25 223.32 464.43 223.52 464.43 223.9C464.43 224.32 464.23 224.5 464.07 224.64C463.83 224.8 463.41 224.86 463.11 224.86H462.37V226.46H463.25C463.73 226.46 464.31 226.44 464.65 226.82C464.83 227 464.91 227.22 464.91 227.5C464.91 227.76 464.81 228.02 464.61 228.24C464.23 228.62 463.61 228.66 463.27 228.66C462.81 228.66 462.35 228.56 462.01 228.34C461.69 228.12 461.43 227.8 461.27 227.46L459.71 228.26C460.03 229 460.55 229.46 461.03 229.76C461.81 230.22 462.61 230.26 463.23 230.26C464.57 230.26 465.55 229.94 466.19 229.3C466.67 228.82 466.91 228.2 466.91 227.44C466.91 227.02 466.83 226.5 466.37 226.04C466.07 225.74 465.61 225.52 465.15 225.42C465.39 225.32 465.69 225.16 465.95 224.82C466.25 224.44 466.31 224.08 466.31 223.66C466.31 222.94 466.07 222.4 465.43 221.94C464.73 221.46 464.01 221.36 463.29 221.36C462.75 221.36 462.01 221.42 461.31 221.72C460.73 221.98 460.33 222.32 460.03 222.66L461.29 223.76ZM474.859 227.16C474.679 227.48 474.419 227.82 474.079 228.08C473.699 228.36 473.259 228.5 472.739 228.5C472.259 228.5 471.699 228.42 471.239 227.96C470.819 227.54 470.579 226.88 470.519 226.26H476.559V226.02C476.559 225.16 476.459 223.6 475.379 222.46C474.879 221.92 474.039 221.36 472.679 221.36C471.479 221.36 470.559 221.8 469.859 222.5C468.979 223.4 468.519 224.66 468.519 225.96C468.519 227.24 468.959 228.38 469.759 229.18C470.559 229.98 471.479 230.26 472.599 230.26C473.499 230.26 474.379 230.08 475.079 229.62C475.619 229.28 476.119 228.72 476.499 228.08L474.859 227.16ZM470.659 224.66C470.759 224.2 470.959 223.84 471.259 223.58C471.519 223.32 471.939 223.04 472.639 223.04C473.279 223.04 473.699 223.28 473.959 223.52C474.279 223.82 474.479 224.2 474.559 224.66H470.659ZM478.607 221.58V230H482.547C482.907 230 483.807 229.96 484.487 229.44C484.907 229.12 485.407 228.54 485.407 227.52C485.407 226.74 485.127 226.24 484.747 225.9C484.407 225.6 484.027 225.42 483.607 225.34C484.307 225 484.607 224.4 484.607 223.7C484.607 222.82 484.127 222.32 483.827 222.08C483.187 221.6 482.407 221.58 481.907 221.58H478.607ZM480.567 224.86V223.18H481.527C481.827 223.18 482.127 223.16 482.387 223.34C482.607 223.5 482.727 223.72 482.727 224C482.727 224.22 482.667 224.46 482.347 224.68C482.287 224.74 482.027 224.86 481.567 224.86H480.567ZM480.567 228.4V226.46H482.087C482.387 226.46 482.767 226.46 483.067 226.68C483.287 226.82 483.447 227.04 483.447 227.42C483.447 227.8 483.227 228.02 483.047 228.16C482.747 228.38 482.347 228.4 482.027 228.4H480.567ZM493.975 221.96C493.075 221.46 492.315 221.36 491.675 221.36C489.995 221.36 488.955 221.94 488.295 222.6C487.675 223.22 487.015 224.26 487.015 225.86C487.015 227.4 487.595 228.4 488.215 229.02C489.015 229.88 489.995 230.26 491.415 230.26C492.715 230.26 493.495 229.9 493.975 229.6V227.42C493.275 228.2 492.355 228.5 491.555 228.5C490.835 228.5 490.235 228.24 489.775 227.82C489.395 227.44 489.015 226.78 489.015 225.8C489.015 224.86 489.355 224.24 489.735 223.86C490.115 223.48 490.655 223.12 491.595 223.12C492.215 223.12 493.075 223.28 493.975 224.16V221.96ZM495.853 221.58V230H497.813V226.86L498.133 226.54L500.933 230H503.413L499.533 225.26L503.213 221.58H500.613L497.813 224.58V221.58H495.853ZM510.861 222.56C510.041 221.54 508.981 221.36 508.361 221.36C506.141 221.36 504.261 223.06 504.261 225.78C504.261 228.1 505.721 230.26 508.341 230.26C508.921 230.26 510.021 230.12 510.861 229.12V230H512.821V221.58H510.861V222.56ZM508.601 223.12C509.821 223.12 510.981 224 510.981 225.84C510.981 227.6 509.821 228.5 508.601 228.5C507.181 228.5 506.261 227.28 506.261 225.82C506.261 224.32 507.181 223.12 508.601 223.12ZM514.226 230H516.526L518.826 226.9H519.226V230H521.186V221.58H518.046C517.186 221.58 516.326 221.64 515.606 222.34C514.946 222.96 514.826 223.74 514.826 224.28C514.826 224.9 514.986 225.48 515.526 226.02C515.846 226.32 516.306 226.58 516.866 226.66L514.226 230ZM519.226 225.3H518.066C517.586 225.3 517.226 225.26 516.986 225.1C516.766 224.96 516.586 224.7 516.586 224.28C516.586 223.9 516.806 223.6 517.066 223.44C517.366 223.28 517.706 223.26 518.086 223.26H519.226V225.3ZM528.694 216.66V230H532.034C533.054 230 534.714 229.82 535.774 228.7C536.414 228 536.654 227.26 536.654 226.3C536.654 225.48 536.494 224.58 535.774 223.8C535.114 223.1 534.294 222.9 534.054 222.84C534.354 222.7 534.754 222.46 535.054 221.92C535.374 221.38 535.454 220.88 535.454 220.34C535.454 219.24 535.094 218.36 534.394 217.7C533.514 216.88 532.454 216.66 530.714 216.66H528.694ZM530.734 218.58H531.434C532.014 218.58 532.594 218.62 533.054 219.08C533.474 219.48 533.534 219.96 533.534 220.36C533.534 220.82 533.474 221.42 533.014 221.88C532.534 222.34 531.854 222.4 531.354 222.4H530.734V218.58ZM530.734 224.08H532.014C532.734 224.08 533.554 224.14 534.114 224.68C534.474 225.04 534.654 225.5 534.654 226.08C534.654 226.7 534.394 227.24 533.994 227.56C533.454 227.98 532.554 228.08 531.974 228.08H530.734V224.08ZM544.761 227.16C544.581 227.48 544.321 227.82 543.981 228.08C543.601 228.36 543.161 228.5 542.641 228.5C542.161 228.5 541.601 228.42 541.141 227.96C540.721 227.54 540.481 226.88 540.421 226.26H546.461V226.02C546.461 225.16 546.361 223.6 545.281 222.46C544.781 221.92 543.941 221.36 542.581 221.36C541.381 221.36 540.461 221.8 539.761 222.5C538.881 223.4 538.421 224.66 538.421 225.96C538.421 227.24 538.861 228.38 539.661 229.18C540.461 229.98 541.381 230.26 542.501 230.26C543.401 230.26 544.281 230.08 544.981 229.62C545.521 229.28 546.021 228.72 546.401 228.08L544.761 227.16ZM540.561 224.66C540.661 224.2 540.861 223.84 541.161 223.58C541.421 223.32 541.841 223.04 542.541 223.04C543.181 223.04 543.601 223.28 543.861 223.52C544.181 223.82 544.381 224.2 544.461 224.66H540.561ZM554.31 223.38V221.58H547.43V223.38H549.89V230H551.85V223.38H554.31ZM561.402 227.16C561.222 227.48 560.962 227.82 560.622 228.08C560.242 228.36 559.802 228.5 559.282 228.5C558.802 228.5 558.242 228.42 557.782 227.96C557.362 227.54 557.122 226.88 557.062 226.26H563.102V226.02C563.102 225.16 563.002 223.6 561.922 222.46C561.422 221.92 560.582 221.36 559.222 221.36C558.022 221.36 557.102 221.8 556.402 222.5C555.522 223.4 555.062 224.66 555.062 225.96C555.062 227.24 555.502 228.38 556.302 229.18C557.102 229.98 558.022 230.26 559.142 230.26C560.042 230.26 560.922 230.08 561.622 229.62C562.162 229.28 562.662 228.72 563.042 228.08L561.402 227.16ZM557.202 224.66C557.302 224.2 557.502 223.84 557.802 223.58C558.062 223.32 558.482 223.04 559.182 223.04C559.822 223.04 560.242 223.28 560.502 223.52C560.822 223.82 561.022 224.2 561.102 224.66H557.202ZM567.11 229.02C567.99 230.12 569.17 230.26 569.63 230.26C571.63 230.26 573.71 228.56 573.71 225.74C573.71 223.08 571.83 221.36 569.61 221.36C568.75 221.36 567.83 221.64 567.11 222.5V221.58H565.15V234.58H567.11V229.02ZM569.37 223.12C570.79 223.12 571.71 224.32 571.71 225.82C571.71 227.28 570.79 228.5 569.37 228.5C568.15 228.5 566.99 227.6 566.99 225.84C566.99 224 568.15 223.12 569.37 223.12ZM575.756 221.58V230.64L581.516 225.1V230H583.476V220.82L577.716 226.36V221.58H575.756ZM585.951 230H587.911V226.5H591.391V230H593.351V221.58H591.391V224.7H587.911V221.58H585.951V230ZM601.994 222.56C601.174 221.54 600.114 221.36 599.494 221.36C597.274 221.36 595.394 223.06 595.394 225.78C595.394 228.1 596.854 230.26 599.474 230.26C600.054 230.26 601.154 230.12 601.994 229.12V230H603.954V221.58H601.994V222.56ZM599.734 223.12C600.954 223.12 602.114 224 602.114 225.84C602.114 227.6 600.954 228.5 599.734 228.5C598.314 228.5 597.394 227.28 597.394 225.82C597.394 224.32 598.314 223.12 599.734 223.12ZM608.399 229.02C609.279 230.12 610.459 230.26 610.919 230.26C612.919 230.26 614.999 228.56 614.999 225.74C614.999 223.08 613.119 221.36 610.899 221.36C610.039 221.36 609.119 221.64 608.399 222.5V221.58H606.439V234.58H608.399V229.02ZM610.659 223.12C612.079 223.12 612.999 224.32 612.999 225.82C612.999 227.28 612.079 228.5 610.659 228.5C609.439 228.5 608.279 227.6 608.279 225.84C608.279 224 609.439 223.12 610.659 223.12ZM617.045 230H619.005V226.5H622.485V230H624.445V221.58H622.485V224.7H619.005V221.58H617.045V230ZM633.088 222.56C632.268 221.54 631.208 221.36 630.588 221.36C628.368 221.36 626.488 223.06 626.488 225.78C626.488 228.1 627.948 230.26 630.568 230.26C631.148 230.26 632.248 230.12 633.088 229.12V230H635.048V221.58H633.088V222.56ZM630.827 223.12C632.048 223.12 633.208 224 633.208 225.84C633.208 227.6 632.048 228.5 630.827 228.5C629.408 228.5 628.488 227.28 628.488 225.82C628.488 224.32 629.408 223.12 630.827 223.12ZM636.453 230H638.753L641.053 226.9H641.453V230H643.413V221.58H640.273C639.413 221.58 638.553 221.64 637.833 222.34C637.173 222.96 637.053 223.74 637.053 224.28C637.053 224.9 637.213 225.48 637.753 226.02C638.073 226.32 638.533 226.58 639.093 226.66L636.453 230ZM641.453 225.3H640.293C639.813 225.3 639.453 225.26 639.213 225.1C638.993 224.96 638.813 224.7 638.813 224.28C638.813 223.9 639.033 223.6 639.293 223.44C639.593 223.28 639.933 223.26 640.313 223.26H641.453V225.3ZM650.56 221.58V230H652.52V226.86L652.84 226.54L655.64 230H658.12L654.24 225.26L657.92 221.58H655.32L652.52 224.58V221.58H650.56ZM666.523 221.58H660.203V226.72C660.203 227.04 660.163 227.5 659.903 227.82C659.643 228.12 659.103 228.34 658.523 228.2V230C659.423 230.14 660.503 230 661.283 229.14C661.983 228.36 662.083 227.44 662.083 226.72V223.38H664.563V230H666.523V221.58ZM668.998 221.58V230.64L674.758 225.1V230H676.718V220.82L670.958 226.36V221.58H668.998ZM679.193 230H681.153V226.5H684.633V230H686.593V221.58H684.633V224.7H681.153V221.58H679.193V230ZM689.076 221.58V230.64L694.836 225.1V230H696.796V220.82L691.036 226.36V221.58H689.076ZM699.271 221.58V230H701.231V226.86L701.551 226.54L704.351 230H706.831L702.951 225.26L706.631 221.58H704.031L701.231 224.58V221.58H699.271ZM714.279 222.56C713.459 221.54 712.399 221.36 711.779 221.36C709.559 221.36 707.679 223.06 707.679 225.78C707.679 228.1 709.139 230.26 711.759 230.26C712.339 230.26 713.439 230.12 714.279 229.12V230H716.239V221.58H714.279V222.56ZM712.019 223.12C713.239 223.12 714.399 224 714.399 225.84C714.399 227.6 713.239 228.5 712.019 228.5C710.599 228.5 709.679 227.28 709.679 225.82C709.679 224.32 710.599 223.12 712.019 223.12Z" fill="#333333"/>
<path d="M214.112 68.66H212.632V82H214.112V75.48H220.952V82H222.432V68.66H220.952V74.08H214.112V68.66ZM231.874 74.88C231.494 74.4 230.634 73.5 229.034 73.5C226.894 73.5 224.994 74.98 224.994 77.84C224.994 80.76 226.954 82.24 229.034 82.24C230.474 82.24 231.414 81.46 231.874 80.84V82H233.314V73.7H231.874V74.88ZM229.194 74.78C230.474 74.78 231.954 75.72 231.954 77.86C231.954 79.52 230.954 80.96 229.194 80.96C227.474 80.96 226.474 79.6 226.474 77.84C226.474 75.82 227.774 74.78 229.194 74.78ZM236.042 82H246.762V73.7H245.322V80.68H242.122V73.7H240.682V80.68H237.482V73.7H236.042V82ZM255.839 74.88C255.459 74.4 254.599 73.5 252.999 73.5C250.859 73.5 248.959 74.98 248.959 77.84C248.959 80.76 250.919 82.24 252.999 82.24C254.439 82.24 255.379 81.46 255.839 80.84V82H257.279V73.7H255.839V74.88ZM253.159 74.78C254.439 74.78 255.919 75.72 255.919 77.86C255.919 79.52 254.919 80.96 253.159 80.96C251.439 80.96 250.439 79.6 250.439 77.84C250.439 75.82 251.739 74.78 253.159 74.78ZM264.674 73.7V82H268.254C268.914 82 269.714 81.82 270.214 81.44C270.674 81.06 271.074 80.44 271.074 79.56C271.074 78.92 270.854 78.38 270.414 77.96C270.014 77.58 269.614 77.46 269.374 77.4C269.874 77.08 270.274 76.56 270.274 75.74C270.274 74.88 269.854 74.42 269.554 74.18C268.974 73.72 268.274 73.7 267.814 73.7H264.674ZM266.114 77.08V74.98H267.394C267.854 74.98 268.214 74.96 268.554 75.18C268.774 75.34 268.954 75.58 268.954 75.98C268.954 76.48 268.714 76.7 268.554 76.84C268.234 77.06 267.774 77.08 267.634 77.08H266.114ZM266.114 80.72V78.28H267.954C268.354 78.28 268.874 78.28 269.254 78.58C269.534 78.8 269.674 79.12 269.674 79.52C269.674 79.9 269.454 80.22 269.194 80.44C268.814 80.7 268.294 80.72 267.894 80.72H266.114ZM279.428 79.22C279.248 79.62 278.948 80.04 278.568 80.36C278.088 80.76 277.528 80.96 276.868 80.96C275.428 80.96 274.228 79.84 274.228 78.14H280.688C280.748 77.02 280.448 75.76 279.908 75.02C279.408 74.3 278.388 73.5 276.768 73.5C274.288 73.5 272.748 75.42 272.748 77.9C272.748 81 274.848 82.24 276.848 82.24C277.928 82.24 278.848 81.9 279.608 81.22C280.028 80.84 280.388 80.34 280.628 79.88L279.428 79.22ZM274.328 76.94C274.548 75.68 275.548 74.78 276.768 74.78C277.988 74.78 278.968 75.64 279.208 76.94H274.328ZM288.337 75.02V73.7H281.697V75.02H284.297V82H285.737V75.02H288.337ZM295.815 79.22C295.635 79.62 295.335 80.04 294.955 80.36C294.475 80.76 293.915 80.96 293.255 80.96C291.815 80.96 290.615 79.84 290.615 78.14H297.075C297.135 77.02 296.835 75.76 296.295 75.02C295.795 74.3 294.775 73.5 293.155 73.5C290.675 73.5 289.135 75.42 289.135 77.9C289.135 81 291.235 82.24 293.235 82.24C294.315 82.24 295.235 81.9 295.995 81.22C296.415 80.84 296.775 80.34 297.015 79.88L295.815 79.22ZM290.715 76.94C290.935 75.68 291.935 74.78 293.155 74.78C294.375 74.78 295.355 75.64 295.595 76.94H290.715ZM300.724 80.84C301.344 81.64 302.264 82.24 303.624 82.24C306.124 82.24 307.604 80.18 307.604 77.9C307.604 75.66 306.164 73.5 303.564 73.5C302.964 73.5 301.684 73.62 300.724 74.86V73.7H299.284V86.6H300.724V80.84ZM303.424 80.96C301.744 80.96 300.644 79.58 300.644 77.88C300.644 75.88 302.044 74.78 303.404 74.78C304.744 74.78 306.124 75.86 306.124 77.9C306.124 79.58 305.104 80.96 303.424 80.96ZM309.811 73.7V82.58L315.491 76.46V82H316.931V73.06L311.251 79.18V73.7H309.811ZM319.655 82H321.095V78.42H325.015V82H326.455V73.7H325.015V77.1H321.095V73.7H319.655V82ZM335.527 74.88C335.147 74.4 334.287 73.5 332.687 73.5C330.547 73.5 328.647 74.98 328.647 77.84C328.647 80.76 330.607 82.24 332.687 82.24C334.127 82.24 335.067 81.46 335.527 80.84V82H336.967V73.7H335.527V74.88ZM332.847 74.78C334.127 74.78 335.607 75.72 335.607 77.86C335.607 79.52 334.607 80.96 332.847 80.96C331.127 80.96 330.127 79.6 330.127 77.84C330.127 75.82 331.427 74.78 332.847 74.78ZM341.134 80.84C341.754 81.64 342.674 82.24 344.034 82.24C346.534 82.24 348.014 80.18 348.014 77.9C348.014 75.66 346.574 73.5 343.974 73.5C343.374 73.5 342.094 73.62 341.134 74.86V73.7H339.694V86.6H341.134V80.84ZM343.834 80.96C342.154 80.96 341.054 79.58 341.054 77.88C341.054 75.88 342.454 74.78 343.814 74.78C345.154 74.78 346.534 75.86 346.534 77.9C346.534 79.58 345.514 80.96 343.834 80.96ZM350.221 82H351.661V78.42H355.581V82H357.021V73.7H355.581V77.1H351.661V73.7H350.221V82ZM366.093 74.88C365.713 74.4 364.853 73.5 363.253 73.5C361.113 73.5 359.213 74.98 359.213 77.84C359.213 80.76 361.173 82.24 363.253 82.24C364.693 82.24 365.633 81.46 366.093 80.84V82H367.533V73.7H366.093V74.88ZM363.413 74.78C364.693 74.78 366.173 75.72 366.173 77.86C366.173 79.52 365.173 80.96 363.413 80.96C361.693 80.96 360.693 79.6 360.693 77.84C360.693 75.82 361.993 74.78 363.413 74.78ZM369.3 82H371.02L373.38 78.66H374.26V82H375.7V73.7H372.8C371.98 73.7 371.08 73.74 370.36 74.4C369.9 74.82 369.62 75.48 369.62 76.26C369.62 77.04 369.94 77.6 370.28 77.92C370.88 78.52 371.78 78.58 371.88 78.58L369.3 82ZM374.26 77.46H372.9C372.56 77.46 372.04 77.48 371.62 77.22C371.28 77 371.1 76.68 371.1 76.22C371.1 75.68 371.38 75.36 371.62 75.2C371.92 75.02 372.34 74.98 372.92 74.98H374.26V77.46ZM383.092 73.7V82H384.532V78.78L384.972 78.36L388.212 82H390.092L386.052 77.4L389.652 73.7H387.892L384.532 77.1V73.7H383.092ZM398.025 73.7H392.185V78.76C392.185 79.26 392.165 79.78 391.905 80.18C391.745 80.44 391.405 80.72 390.865 80.72C390.785 80.72 390.685 80.7 390.545 80.68V82C390.685 82.02 390.845 82.04 390.985 82.04C392.105 82.04 392.725 81.48 392.985 81.16C393.625 80.38 393.625 79.46 393.625 78.76V75.02H396.585V82H398.025V73.7ZM400.749 73.7V82.58L406.429 76.46V82H407.869V73.06L402.189 79.18V73.7H400.749ZM410.592 82H412.032V78.42H415.952V82H417.392V73.7H415.952V77.1H412.032V73.7H410.592V82ZM420.104 73.7V82.58L425.784 76.46V82H427.224V73.06L421.544 79.18V73.7H420.104ZM429.948 73.7V82H431.388V78.78L431.828 78.36L435.068 82H436.948L432.908 77.4L436.508 73.7H434.748L431.388 77.1V73.7H429.948ZM444.745 74.88C444.365 74.4 443.505 73.5 441.905 73.5C439.765 73.5 437.865 74.98 437.865 77.84C437.865 80.76 439.825 82.24 441.905 82.24C443.345 82.24 444.285 81.46 444.745 80.84V82H446.185V73.7H444.745V74.88ZM442.065 74.78C443.345 74.78 444.825 75.72 444.825 77.86C444.825 79.52 443.825 80.96 442.065 80.96C440.345 80.96 439.345 79.6 439.345 77.84C439.345 75.82 440.645 74.78 442.065 74.78ZM453.581 82H455.021V75.02H458.501V73.7H453.581V82ZM463.398 82.24C465.918 82.24 467.798 80.38 467.798 77.88C467.798 75.38 465.938 73.5 463.398 73.5C460.858 73.5 458.998 75.38 458.998 77.88C458.998 80.38 460.878 82.24 463.398 82.24ZM463.398 74.78C464.918 74.78 466.318 75.86 466.318 77.88C466.318 79.88 464.898 80.96 463.398 80.96C461.918 80.96 460.478 79.92 460.478 77.88C460.478 75.86 461.878 74.78 463.398 74.78ZM475.251 75.02V73.7H468.611V75.02H471.211V82H472.651V75.02H475.251ZM480.449 82.24C482.969 82.24 484.849 80.38 484.849 77.88C484.849 75.38 482.989 73.5 480.449 73.5C477.909 73.5 476.049 75.38 476.049 77.88C476.049 80.38 477.929 82.24 480.449 82.24ZM480.449 74.78C481.969 74.78 483.369 75.86 483.369 77.88C483.369 79.88 481.949 80.96 480.449 80.96C478.969 80.96 477.529 79.92 477.529 77.88C477.529 75.86 478.929 74.78 480.449 74.78ZM487.057 73.7V82H490.637C491.297 82 492.097 81.82 492.597 81.44C493.057 81.06 493.457 80.44 493.457 79.56C493.457 78.92 493.237 78.38 492.797 77.96C492.397 77.58 491.997 77.46 491.757 77.4C492.257 77.08 492.657 76.56 492.657 75.74C492.657 74.88 492.237 74.42 491.937 74.18C491.357 73.72 490.657 73.7 490.197 73.7H487.057ZM488.497 77.08V74.98H489.777C490.237 74.98 490.597 74.96 490.937 75.18C491.157 75.34 491.337 75.58 491.337 75.98C491.337 76.48 491.097 76.7 490.937 76.84C490.617 77.06 490.157 77.08 490.017 77.08H488.497ZM488.497 80.72V78.28H490.337C490.737 78.28 491.257 78.28 491.637 78.58C491.917 78.8 492.057 79.12 492.057 79.52C492.057 79.9 491.837 80.22 491.577 80.44C491.197 80.7 490.677 80.72 490.277 80.72H488.497ZM502.011 74.88C501.631 74.4 500.771 73.5 499.171 73.5C497.031 73.5 495.131 74.98 495.131 77.84C495.131 80.76 497.091 82.24 499.171 82.24C500.611 82.24 501.551 81.46 502.011 80.84V82H503.451V73.7H502.011V74.88ZM499.331 74.78C500.611 74.78 502.091 75.72 502.091 77.86C502.091 79.52 501.091 80.96 499.331 80.96C497.611 80.96 496.611 79.6 496.611 77.84C496.611 75.82 497.911 74.78 499.331 74.78ZM510.826 86.6H512.426L518.526 73.7H516.926L514.226 79.64L511.286 73.7H509.646L513.466 81.22L510.826 86.6ZM520.646 73.7V77.4C520.646 78.26 520.606 79.02 520.306 79.6C520.006 80.18 519.486 80.66 518.766 80.68V84.2H520.086V82H526.406V84.2H527.726V80.68H526.486V73.7H520.646ZM525.046 80.68H521.086C521.866 79.98 522.086 79.1 522.086 78.14V75.02H525.046V80.68ZM535.405 79.22C535.225 79.62 534.925 80.04 534.545 80.36C534.065 80.76 533.505 80.96 532.845 80.96C531.405 80.96 530.205 79.84 530.205 78.14H536.665C536.725 77.02 536.425 75.76 535.885 75.02C535.385 74.3 534.365 73.5 532.745 73.5C530.265 73.5 528.725 75.42 528.725 77.9C528.725 81 530.825 82.24 532.825 82.24C533.905 82.24 534.825 81.9 535.585 81.22C536.005 80.84 536.365 80.34 536.605 79.88L535.405 79.22ZM530.305 76.94C530.525 75.68 531.525 74.78 532.745 74.78C533.965 74.78 534.945 75.64 535.185 76.94H530.305ZM545.154 73.7H539.314V78.76C539.314 79.26 539.294 79.78 539.034 80.18C538.874 80.44 538.534 80.72 537.994 80.72C537.914 80.72 537.814 80.7 537.674 80.68V82C537.814 82.02 537.974 82.04 538.114 82.04C539.234 82.04 539.854 81.48 540.114 81.16C540.754 80.38 540.754 79.46 540.754 78.76V75.02H543.714V82H545.154V73.7ZM547.878 73.7V82.58L553.558 76.46V82H554.998V73.06L549.318 79.18V73.7H547.878ZM563.161 75.02V73.7H556.521V75.02H559.121V82H560.561V75.02H563.161ZM564.674 82H567.574C568.394 82 569.274 81.98 570.014 81.3C570.394 80.96 570.754 80.34 570.754 79.44C570.754 78.58 570.434 78.02 570.114 77.7C569.374 76.96 568.334 76.88 567.594 76.88H566.114V73.7H564.674V82ZM566.114 80.72V78.16H567.474C567.934 78.16 568.374 78.16 568.754 78.4C569.174 78.66 569.274 79.06 569.274 79.44C569.274 80.08 568.914 80.36 568.734 80.5C568.394 80.72 567.934 80.72 567.454 80.72H566.114ZM576.39 82H577.87L578.93 76.86L581.79 82.58L584.61 76.86L585.71 82H587.19L585.19 73.06L581.83 79.82L578.39 73.06L576.39 82ZM595.312 74.88C594.932 74.4 594.072 73.5 592.472 73.5C590.332 73.5 588.432 74.98 588.432 77.84C588.432 80.76 590.392 82.24 592.472 82.24C593.912 82.24 594.852 81.46 595.312 80.84V82H596.752V73.7H595.312V74.88ZM592.632 74.78C593.912 74.78 595.392 75.72 595.392 77.86C595.392 79.52 594.392 80.96 592.632 80.96C590.912 80.96 589.912 79.6 589.912 77.84C589.912 75.82 591.212 74.78 592.632 74.78ZM599.479 73.7V82H600.919V78.78L601.359 78.36L604.599 82H606.479L602.439 77.4L606.039 73.7H604.279L600.919 77.1V73.7H599.479ZM613.987 74.3C613.587 74 612.747 73.5 611.407 73.5C608.847 73.5 606.967 75.36 606.967 77.9C606.967 80.38 608.827 82.24 611.407 82.24C612.187 82.24 613.147 82.04 614.047 81.38V79.66C613.267 80.6 612.227 80.96 611.367 80.96C609.887 80.96 608.447 79.88 608.447 77.88C608.447 75.86 609.847 74.78 611.387 74.78C612.127 74.78 613.207 75.06 613.987 76.02V74.3ZM616.256 73.7V82.58L621.936 76.46V82H623.376V73.06L617.696 79.18V73.7H616.256ZM625.14 82H626.62L627.68 76.86L630.54 82.58L633.36 76.86L634.46 82H635.94L633.94 73.06L630.58 79.82L627.14 73.06L625.14 82ZM637.682 86.6H639.282L645.382 73.7H643.782L641.082 79.64L638.142 73.7H636.502L640.322 81.22L637.682 86.6ZM645.941 82H647.421L648.481 76.86L651.341 82.58L654.161 76.86L655.261 82H656.741L654.741 73.06L651.381 79.82L647.941 73.06L645.941 82ZM663.171 73.7V82H666.751C667.411 82 668.211 81.82 668.711 81.44C669.171 81.06 669.571 80.44 669.571 79.56C669.571 78.92 669.351 78.38 668.911 77.96C668.511 77.58 668.111 77.46 667.871 77.4C668.371 77.08 668.771 76.56 668.771 75.74C668.771 74.88 668.351 74.42 668.051 74.18C667.471 73.72 666.771 73.7 666.311 73.7H663.171ZM664.611 77.08V74.98H665.891C666.351 74.98 666.711 74.96 667.051 75.18C667.271 75.34 667.451 75.58 667.451 75.98C667.451 76.48 667.211 76.7 667.051 76.84C666.731 77.06 666.271 77.08 666.131 77.08H664.611ZM664.611 80.72V78.28H666.451C666.851 78.28 667.371 78.28 667.751 78.58C668.031 78.8 668.171 79.12 668.171 79.52C668.171 79.9 667.951 80.22 667.691 80.44C667.311 80.7 666.791 80.72 666.391 80.72H664.611ZM671.764 82H673.204V78.42H677.124V82H678.564V73.7H677.124V77.1H673.204V73.7H671.764V82ZM681.276 73.7V82.58L686.956 76.46V82H688.396V73.06L682.716 79.18V73.7H681.276ZM690.16 82H691.64L692.7 76.86L695.56 82.58L698.38 76.86L699.48 82H700.96L698.96 73.06L695.6 79.82L692.16 73.06L690.16 82ZM709.081 74.88C708.701 74.4 707.841 73.5 706.241 73.5C704.101 73.5 702.201 74.98 702.201 77.84C702.201 80.76 704.161 82.24 706.241 82.24C707.681 82.24 708.621 81.46 709.081 80.84V82H710.521V73.7H709.081V74.88ZM706.401 74.78C707.681 74.78 709.161 75.72 709.161 77.86C709.161 79.52 708.161 80.96 706.401 80.96C704.681 80.96 703.681 79.6 703.681 77.84C703.681 75.82 704.981 74.78 706.401 74.78ZM713.249 82H714.689V78.42H718.609V82H720.049V73.7H718.609V77.1H714.689V73.7H713.249V82ZM722.76 73.7V82.58L728.44 76.46V82H729.88V73.06L724.2 79.18V73.7H722.76ZM731.644 82H733.364L735.724 78.66H736.604V82H738.044V73.7H735.144C734.324 73.7 733.424 73.74 732.704 74.4C732.244 74.82 731.964 75.48 731.964 76.26C731.964 77.04 732.284 77.6 732.624 77.92C733.224 78.52 734.124 78.58 734.224 78.58L731.644 82ZM736.604 77.46H735.244C734.904 77.46 734.384 77.48 733.964 77.22C733.624 77 733.444 76.68 733.444 76.22C733.444 75.68 733.724 75.36 733.964 75.2C734.264 75.02 734.684 74.98 735.264 74.98H736.604V77.46ZM745.796 68.66V82H749.116C750.036 82 751.276 81.96 752.316 81.12C753.036 80.56 753.676 79.52 753.676 78.24C753.676 76.94 752.976 75.36 751.136 74.88C752.296 74.08 752.456 72.92 752.456 72.26C752.456 70.64 751.676 69.82 751.256 69.5C750.316 68.72 748.916 68.66 748.196 68.66H745.796ZM747.276 70.06H748.436C748.856 70.06 751.016 70.1 751.016 72.3C751.016 74.36 749.176 74.52 748.396 74.52H747.276V70.06ZM747.276 75.84H748.796C749.816 75.84 750.576 75.98 751.056 76.24C751.596 76.54 752.196 77.14 752.196 78.2C752.196 79 751.856 79.66 751.316 80.04C750.676 80.54 749.836 80.6 748.976 80.6H747.276V75.84ZM762.402 74.88C762.022 74.4 761.162 73.5 759.562 73.5C757.422 73.5 755.522 74.98 755.522 77.84C755.522 80.76 757.482 82.24 759.562 82.24C761.002 82.24 761.942 81.46 762.402 80.84V82H763.842V73.7H762.402V74.88ZM759.722 74.78C761.002 74.78 762.482 75.72 762.482 77.86C762.482 79.52 761.482 80.96 759.722 80.96C758.002 80.96 757.002 79.6 757.002 77.84C757.002 75.82 758.302 74.78 759.722 74.78ZM765.609 82H767.089L768.149 76.86L771.009 82.58L773.829 76.86L774.929 82H776.409L774.409 73.06L771.049 79.82L767.609 73.06L765.609 82ZM782.839 73.7V82.58L788.519 76.46V82H789.959V73.06L784.279 79.18V73.7H782.839ZM797.71 68.66V82H801.03C801.95 82 803.19 81.96 804.23 81.12C804.95 80.56 805.59 79.52 805.59 78.24C805.59 76.94 804.89 75.36 803.05 74.88C804.21 74.08 804.37 72.92 804.37 72.26C804.37 70.64 803.59 69.82 803.17 69.5C802.23 68.72 800.83 68.66 800.11 68.66H797.71ZM799.19 70.06H800.35C800.77 70.06 802.93 70.1 802.93 72.3C802.93 74.36 801.09 74.52 800.31 74.52H799.19V70.06ZM799.19 75.84H800.71C801.73 75.84 802.49 75.98 802.97 76.24C803.51 76.54 804.11 77.14 804.11 78.2C804.11 79 803.77 79.66 803.23 80.04C802.59 80.54 801.75 80.6 800.89 80.6H799.19V75.84ZM814.316 74.88C813.936 74.4 813.076 73.5 811.476 73.5C809.336 73.5 807.436 74.98 807.436 77.84C807.436 80.76 809.396 82.24 811.476 82.24C812.916 82.24 813.856 81.46 814.316 80.84V82H815.756V73.7H814.316V74.88ZM811.636 74.78C812.916 74.78 814.396 75.72 814.396 77.86C814.396 79.52 813.396 80.96 811.636 80.96C809.916 80.96 808.916 79.6 808.916 77.84C808.916 75.82 810.216 74.78 811.636 74.78ZM818.483 82H829.203V73.7H827.763V80.68H824.563V73.7H823.123V80.68H819.923V73.7H818.483V82ZM838.081 79.22C837.901 79.62 837.601 80.04 837.221 80.36C836.741 80.76 836.181 80.96 835.521 80.96C834.081 80.96 832.881 79.84 832.881 78.14H839.341C839.401 77.02 839.101 75.76 838.561 75.02C838.061 74.3 837.041 73.5 835.421 73.5C832.941 73.5 831.401 75.42 831.401 77.9C831.401 81 833.501 82.24 835.501 82.24C836.581 82.24 837.501 81.9 838.261 81.22C838.681 80.84 839.041 80.34 839.281 79.88L838.081 79.22ZM832.981 76.94C833.201 75.68 834.201 74.78 835.421 74.78C836.641 74.78 837.621 75.64 837.861 76.94H832.981ZM840.589 82H842.069L843.129 76.86L845.989 82.58L848.809 76.86L849.909 82H851.389L849.389 73.06L846.029 79.82L842.589 73.06L840.589 82ZM853.131 86.6H854.731L860.831 73.7H859.231L856.531 79.64L853.591 73.7H851.951L855.771 81.22L853.131 86.6ZM867.018 73.7V82H868.458V75.02H872.258V82H873.698V73.7H867.018ZM876.413 73.7V82.58L882.093 76.46V82H883.533V73.06L877.853 79.18V73.7H876.413ZM891.696 75.02V73.7H885.056V75.02H887.656V82H889.096V75.02H891.696ZM899.316 74.88C898.936 74.4 898.076 73.5 896.476 73.5C894.336 73.5 892.436 74.98 892.436 77.84C892.436 80.76 894.396 82.24 896.476 82.24C897.916 82.24 898.856 81.46 899.316 80.84V82H900.756V73.7H899.316V74.88ZM896.636 74.78C897.916 74.78 899.396 75.72 899.396 77.86C899.396 79.52 898.396 80.96 896.636 80.96C894.916 80.96 893.916 79.6 893.916 77.84C893.916 75.82 895.216 74.78 896.636 74.78ZM902.523 82H904.003L905.063 76.86L907.923 82.58L910.743 76.86L911.843 82H913.323L911.323 73.06L907.963 79.82L904.523 73.06L902.523 82ZM915.085 82H921.725V84.2H923.045V80.68H921.685V73.7H920.245V80.68H916.525V73.7H915.085V82ZM924.537 86.6H926.137L932.237 73.7H930.637L927.937 79.64L924.997 73.7H923.357L927.177 81.22L924.537 86.6ZM932.817 81.2C932.817 81.74 933.277 82.2 933.817 82.2C934.357 82.2 934.817 81.74 934.817 81.2C934.817 80.66 934.357 80.2 933.817 80.2C933.277 80.2 932.817 80.66 932.817 81.2ZM215.341 97.28C216.141 96.1 217.061 95.84 218.021 95.84C218.561 95.84 219.281 95.92 219.821 96.46C220.141 96.78 220.361 97.28 220.361 97.86C220.361 99.08 219.501 100.12 217.641 100.12H216.441V101.52H217.641C218.941 101.52 221.201 101.7 221.201 104.14C221.201 104.86 220.981 105.66 220.121 106.28C219.561 106.66 218.801 106.84 218.081 106.84C216.481 106.84 215.181 105.92 214.641 104.4L213.201 105.04C213.901 106.6 215.341 108.24 218.021 108.24C219.121 108.24 220.201 107.94 221.061 107.36C221.881 106.78 222.721 105.76 222.721 104.1C222.721 102.48 221.821 101.06 220.041 100.66C221.081 100.18 221.881 99.2 221.881 97.84C221.881 96.72 221.421 95.92 220.841 95.38C219.941 94.54 218.681 94.44 218.021 94.44C216.741 94.44 215.261 94.78 214.201 96.38L215.341 97.28ZM225.685 99.7V103.4C225.685 104.26 225.645 105.02 225.345 105.6C225.045 106.18 224.525 106.66 223.805 106.68V110.2H225.125V108H231.445V110.2H232.765V106.68H231.525V99.7H225.685ZM230.085 106.68H226.125C226.905 105.98 227.125 105.1 227.125 104.14V101.02H230.085V106.68ZM238.164 108.24C240.684 108.24 242.564 106.38 242.564 103.88C242.564 101.38 240.704 99.5 238.164 99.5C235.624 99.5 233.764 101.38 233.764 103.88C233.764 106.38 235.644 108.24 238.164 108.24ZM238.164 100.78C239.684 100.78 241.084 101.86 241.084 103.88C241.084 105.88 239.664 106.96 238.164 106.96C236.684 106.96 235.244 105.92 235.244 103.88C235.244 101.86 236.644 100.78 238.164 100.78ZM246.212 106.84C246.832 107.64 247.752 108.24 249.112 108.24C251.612 108.24 253.092 106.18 253.092 103.9C253.092 101.66 251.652 99.5 249.052 99.5C248.452 99.5 247.172 99.62 246.212 100.86V99.7H244.772V112.6H246.212V106.84ZM248.912 106.96C247.232 106.96 246.132 105.58 246.132 103.88C246.132 101.88 247.532 100.78 248.892 100.78C250.232 100.78 251.612 101.86 251.612 103.9C251.612 105.58 250.592 106.96 248.912 106.96ZM259.179 108.24C261.699 108.24 263.579 106.38 263.579 103.88C263.579 101.38 261.719 99.5 259.179 99.5C256.639 99.5 254.779 101.38 254.779 103.88C254.779 106.38 256.659 108.24 259.179 108.24ZM259.179 100.78C260.699 100.78 262.099 101.86 262.099 103.88C262.099 105.88 260.679 106.96 259.179 106.96C257.699 106.96 256.259 105.92 256.259 103.88C256.259 101.86 257.659 100.78 259.179 100.78ZM265.788 99.7V108H269.368C270.028 108 270.828 107.82 271.328 107.44C271.788 107.06 272.188 106.44 272.188 105.56C272.188 104.92 271.968 104.38 271.528 103.96C271.128 103.58 270.728 103.46 270.488 103.4C270.988 103.08 271.388 102.56 271.388 101.74C271.388 100.88 270.968 100.42 270.668 100.18C270.088 99.72 269.388 99.7 268.928 99.7H265.788ZM267.228 103.08V100.98H268.508C268.968 100.98 269.328 100.96 269.668 101.18C269.888 101.34 270.068 101.58 270.068 101.98C270.068 102.48 269.828 102.7 269.668 102.84C269.348 103.06 268.888 103.08 268.748 103.08H267.228ZM267.228 106.72V104.28H269.068C269.468 104.28 269.988 104.28 270.368 104.58C270.648 104.8 270.788 105.12 270.788 105.52C270.788 105.9 270.568 106.22 270.308 106.44C269.928 106.7 269.408 106.72 269.008 106.72H267.228ZM274.381 108H277.281C278.101 108 278.981 107.98 279.721 107.3C280.101 106.96 280.461 106.34 280.461 105.44C280.461 104.58 280.141 104.02 279.821 103.7C279.081 102.96 278.041 102.88 277.301 102.88H275.821V99.7H274.381V108ZM275.821 106.72V104.16H277.181C277.641 104.16 278.081 104.16 278.461 104.4C278.881 104.66 278.981 105.06 278.981 105.44C278.981 106.08 278.621 106.36 278.441 106.5C278.101 106.72 277.641 106.72 277.161 106.72H275.821ZM288.549 105.22C288.369 105.62 288.069 106.04 287.689 106.36C287.209 106.76 286.649 106.96 285.989 106.96C284.549 106.96 283.349 105.84 283.349 104.14H289.809C289.869 103.02 289.569 101.76 289.029 101.02C288.529 100.3 287.509 99.5 285.889 99.5C283.409 99.5 281.869 101.42 281.869 103.9C281.869 107 283.969 108.24 285.969 108.24C287.049 108.24 287.969 107.9 288.729 107.22C289.149 106.84 289.509 106.34 289.749 105.88L288.549 105.22ZM283.449 102.94C283.669 101.68 284.669 100.78 285.889 100.78C287.109 100.78 288.089 101.64 288.329 102.94H283.449ZM296.686 99.7V108.58L302.366 102.46V108H303.806V99.06L298.126 105.18V99.7H296.686ZM317.598 94C317.418 94.46 317.058 94.8 315.938 95.06C314.978 95.28 313.938 95.46 313.038 96.08C310.738 97.68 310.678 101.44 310.678 102.92C310.678 104.38 310.818 106.04 312.078 107.2C312.618 107.7 313.518 108.24 314.938 108.24C317.658 108.24 319.478 106.36 319.478 103.88C319.478 101.4 317.638 99.5 315.158 99.5C313.658 99.5 312.678 100.08 312.138 101.02H312.098C312.158 99.5 312.798 98 313.838 97.22C314.638 96.64 315.698 96.46 316.478 96.26C317.358 96.04 318.718 95.6 319.198 94H317.598ZM315.078 100.78C316.598 100.78 317.998 101.86 317.998 103.88C317.998 105.88 316.578 106.96 315.078 106.96C313.598 106.96 312.158 105.92 312.158 103.88C312.158 101.86 313.558 100.78 315.078 100.78ZM327.966 99.7H322.126V104.76C322.126 105.26 322.106 105.78 321.846 106.18C321.686 106.44 321.346 106.72 320.806 106.72C320.726 106.72 320.626 106.7 320.486 106.68V108C320.626 108.02 320.786 108.04 320.926 108.04C322.046 108.04 322.666 107.48 322.926 107.16C323.566 106.38 323.566 105.46 323.566 104.76V101.02H326.526V108H327.966V99.7ZM337.05 100.88C336.67 100.4 335.81 99.5 334.21 99.5C332.07 99.5 330.17 100.98 330.17 103.84C330.17 106.76 332.13 108.24 334.21 108.24C335.65 108.24 336.59 107.46 337.05 106.84V108H338.49V99.7H337.05V100.88ZM334.37 100.78C335.65 100.78 337.13 101.72 337.13 103.86C337.13 105.52 336.13 106.96 334.37 106.96C332.65 106.96 331.65 105.6 331.65 103.84C331.65 101.82 332.95 100.78 334.37 100.78ZM341.217 108H342.657V101.02H346.137V99.7H341.217V108ZM351.035 108.24C353.555 108.24 355.435 106.38 355.435 103.88C355.435 101.38 353.575 99.5 351.035 99.5C348.495 99.5 346.635 101.38 346.635 103.88C346.635 106.38 348.515 108.24 351.035 108.24ZM351.035 100.78C352.555 100.78 353.955 101.86 353.955 103.88C353.955 105.88 352.535 106.96 351.035 106.96C349.555 106.96 348.115 105.92 348.115 103.88C348.115 101.86 349.515 100.78 351.035 100.78ZM357.643 99.7V108H359.083V101.02H362.883V108H364.323V99.7H357.643ZM370.918 108.24C373.438 108.24 375.318 106.38 375.318 103.88C375.318 101.38 373.458 99.5 370.918 99.5C368.378 99.5 366.518 101.38 366.518 103.88C366.518 106.38 368.398 108.24 370.918 108.24ZM370.918 100.78C372.438 100.78 373.838 101.86 373.838 103.88C373.838 105.88 372.418 106.96 370.918 106.96C369.438 106.96 367.998 105.92 367.998 103.88C367.998 101.86 369.398 100.78 370.918 100.78ZM383.806 99.7H377.966V104.76C377.966 105.26 377.946 105.78 377.686 106.18C377.526 106.44 377.186 106.72 376.646 106.72C376.566 106.72 376.466 106.7 376.326 106.68V108C376.466 108.02 376.626 108.04 376.766 108.04C377.886 108.04 378.506 107.48 378.766 107.16C379.406 106.38 379.406 105.46 379.406 104.76V101.02H382.366V108H383.806V99.7ZM386.51 112.6H388.11L394.21 99.7H392.61L389.91 105.64L386.97 99.7H385.33L389.15 107.22L386.51 112.6ZM399.974 108H401.414V99.7H399.974V103.42C399.354 103.54 398.754 103.6 398.174 103.6C397.714 103.6 397.174 103.56 396.914 103.06C396.774 102.82 396.734 102.38 396.734 102.08V99.7H395.294V102.28C395.294 103.08 395.434 103.82 395.994 104.32C396.634 104.9 397.614 104.92 398.014 104.92C398.594 104.92 399.434 104.82 399.974 104.74V108ZM404.128 99.7V108.58L409.808 102.46V108H411.248V99.06L405.568 105.18V99.7H404.128ZM420.131 105.22C419.951 105.62 419.651 106.04 419.271 106.36C418.791 106.76 418.231 106.96 417.571 106.96C416.131 106.96 414.931 105.84 414.931 104.14H421.391C421.451 103.02 421.151 101.76 420.611 101.02C420.111 100.3 419.091 99.5 417.471 99.5C414.991 99.5 413.451 101.42 413.451 103.9C413.451 107 415.551 108.24 417.551 108.24C418.631 108.24 419.551 107.9 420.311 107.22C420.731 106.84 421.091 106.34 421.331 105.88L420.131 105.22ZM415.031 102.94C415.251 101.68 416.251 100.78 417.471 100.78C418.691 100.78 419.671 101.64 419.911 102.94H415.031ZM428.628 94.66V108H431.948C432.868 108 434.108 107.96 435.148 107.12C435.868 106.56 436.508 105.52 436.508 104.24C436.508 102.94 435.808 101.36 433.968 100.88C435.128 100.08 435.288 98.92 435.288 98.26C435.288 96.64 434.508 95.82 434.088 95.5C433.148 94.72 431.748 94.66 431.028 94.66H428.628ZM430.108 96.06H431.268C431.688 96.06 433.848 96.1 433.848 98.3C433.848 100.36 432.008 100.52 431.228 100.52H430.108V96.06ZM430.108 101.84H431.628C432.648 101.84 433.408 101.98 433.888 102.24C434.428 102.54 435.028 103.14 435.028 104.2C435.028 105 434.688 105.66 434.148 106.04C433.508 106.54 432.668 106.6 431.808 106.6H430.108V101.84ZM445.234 100.88C444.854 100.4 443.994 99.5 442.394 99.5C440.254 99.5 438.354 100.98 438.354 103.84C438.354 106.76 440.314 108.24 442.394 108.24C443.834 108.24 444.774 107.46 445.234 106.84V108H446.674V99.7H445.234V100.88ZM442.554 100.78C443.834 100.78 445.314 101.72 445.314 103.86C445.314 105.52 444.314 106.96 442.554 106.96C440.834 106.96 439.834 105.6 439.834 103.84C439.834 101.82 441.134 100.78 442.554 100.78ZM449.401 108H460.121V99.7H458.681V106.68H455.481V99.7H454.041V106.68H450.841V99.7H449.401V108ZM462.839 99.7V108.58L468.519 102.46V108H469.959V99.06L464.279 105.18V99.7H462.839ZM471.482 108H473.242L475.862 104.62L478.482 108H480.242L476.802 103.58L479.842 99.7H478.082L475.902 102.52L473.762 99.7H472.002L475.022 103.56L471.482 108ZM490.312 99.7V103.1L487.192 99.7H485.512L489.112 103.54L485.152 108H486.952L490.032 104.5L490.312 104.78V108H491.752V104.78L492.032 104.5L495.112 108H496.912L492.952 103.54L496.552 99.7H494.872L491.752 103.1V99.7H490.312ZM498.346 99.7V108.58L504.026 102.46V108H505.466V99.06L499.786 105.18V99.7H498.346ZM508.19 99.7V108H511.77C512.43 108 513.23 107.82 513.73 107.44C514.19 107.06 514.59 106.44 514.59 105.56C514.59 104.92 514.37 104.38 513.93 103.96C513.53 103.58 513.13 103.46 512.89 103.4C513.39 103.08 513.79 102.56 513.79 101.74C513.79 100.88 513.37 100.42 513.07 100.18C512.49 99.72 511.79 99.7 511.33 99.7H508.19ZM509.63 103.08V100.98H510.91C511.37 100.98 511.73 100.96 512.07 101.18C512.29 101.34 512.47 101.58 512.47 101.98C512.47 102.48 512.23 102.7 512.07 102.84C511.75 103.06 511.29 103.08 511.15 103.08H509.63ZM509.63 106.72V104.28H511.47C511.87 104.28 512.39 104.28 512.77 104.58C513.05 104.8 513.19 105.12 513.19 105.52C513.19 105.9 512.97 106.22 512.71 106.44C512.33 106.7 511.81 106.72 511.41 106.72H509.63ZM520.664 108.24C523.184 108.24 525.064 106.38 525.064 103.88C525.064 101.38 523.204 99.5 520.664 99.5C518.124 99.5 516.264 101.38 516.264 103.88C516.264 106.38 518.144 108.24 520.664 108.24ZM520.664 100.78C522.184 100.78 523.584 101.86 523.584 103.88C523.584 105.88 522.164 106.96 520.664 106.96C519.184 106.96 517.744 105.92 517.744 103.88C517.744 101.86 519.144 100.78 520.664 100.78ZM532.517 101.02V99.7H525.877V101.02H528.477V108H529.917V101.02H532.517ZM534.03 108H535.47V104.42H539.39V108H540.83V99.7H539.39V103.1H535.47V99.7H534.03V108ZM543.542 108H546.442C547.262 108 548.142 107.98 548.882 107.3C549.262 106.96 549.622 106.34 549.622 105.44C549.622 104.58 549.302 104.02 548.982 103.7C548.242 102.96 547.202 102.88 546.462 102.88H544.982V99.7H543.542V108ZM544.982 106.72V104.16H546.342C546.802 104.16 547.242 104.16 547.622 104.4C548.042 104.66 548.142 105.06 548.142 105.44C548.142 106.08 547.782 106.36 547.602 106.5C547.262 106.72 546.802 106.72 546.322 106.72H544.982ZM550.622 108H552.062V99.7H550.622V108ZM553.572 108H555.332L557.952 104.62L560.572 108H562.332L558.892 103.58L561.932 99.7H560.172L557.992 102.52L555.852 99.7H554.092L557.112 103.56L553.572 108ZM572.402 108.24C574.922 108.24 576.802 106.38 576.802 103.88C576.802 101.38 574.942 99.5 572.402 99.5C569.862 99.5 568.002 101.38 568.002 103.88C568.002 106.38 569.882 108.24 572.402 108.24ZM572.402 100.78C573.922 100.78 575.322 101.86 575.322 103.88C575.322 105.88 573.902 106.96 572.402 106.96C570.922 106.96 569.482 105.92 569.482 103.88C569.482 101.86 570.882 100.78 572.402 100.78ZM583.45 108H584.89V99.7H583.45V103.42C582.83 103.54 582.23 103.6 581.65 103.6C581.19 103.6 580.65 103.56 580.39 103.06C580.25 102.82 580.21 102.38 580.21 102.08V99.7H578.77V102.28C578.77 103.08 578.91 103.82 579.47 104.32C580.11 104.9 581.09 104.92 581.49 104.92C582.07 104.92 582.91 104.82 583.45 104.74V108ZM593.764 105.22C593.584 105.62 593.284 106.04 592.904 106.36C592.424 106.76 591.864 106.96 591.204 106.96C589.764 106.96 588.564 105.84 588.564 104.14H595.024C595.084 103.02 594.784 101.76 594.244 101.02C593.744 100.3 592.724 99.5 591.104 99.5C588.624 99.5 587.084 101.42 587.084 103.9C587.084 107 589.184 108.24 591.184 108.24C592.264 108.24 593.184 107.9 593.944 107.22C594.364 106.84 594.724 106.34 594.964 105.88L593.764 105.22ZM588.664 102.94C588.884 101.68 589.884 100.78 591.104 100.78C592.324 100.78 593.304 101.64 593.544 102.94H588.664ZM597.233 108H598.673V104.42H602.593V108H604.033V99.7H602.593V103.1H598.673V99.7H597.233V108ZM606.745 108H609.645C610.465 108 611.345 107.98 612.085 107.3C612.465 106.96 612.825 106.34 612.825 105.44C612.825 104.58 612.505 104.02 612.185 103.7C611.445 102.96 610.405 102.88 609.665 102.88H608.185V99.7H606.745V108ZM608.185 106.72V104.16H609.545C610.005 104.16 610.445 104.16 610.825 104.4C611.245 104.66 611.345 105.06 611.345 105.44C611.345 106.08 610.985 106.36 610.805 106.5C610.465 106.72 610.005 106.72 609.525 106.72H608.185ZM619.421 99.7V108H623.001C623.661 108 624.461 107.82 624.961 107.44C625.421 107.06 625.821 106.44 625.821 105.56C625.821 104.92 625.601 104.38 625.161 103.96C624.761 103.58 624.361 103.46 624.121 103.4C624.621 103.08 625.021 102.56 625.021 101.74C625.021 100.88 624.601 100.42 624.301 100.18C623.721 99.72 623.021 99.7 622.561 99.7H619.421ZM620.861 103.08V100.98H622.141C622.601 100.98 622.961 100.96 623.301 101.18C623.521 101.34 623.701 101.58 623.701 101.98C623.701 102.48 623.461 102.7 623.301 102.84C622.981 103.06 622.521 103.08 622.381 103.08H620.861ZM620.861 106.72V104.28H622.701C623.101 104.28 623.621 104.28 624.001 104.58C624.281 104.8 624.421 105.12 624.421 105.52C624.421 105.9 624.201 106.22 623.941 106.44C623.561 106.7 623.041 106.72 622.641 106.72H620.861ZM634.374 100.88C633.994 100.4 633.134 99.5 631.534 99.5C629.394 99.5 627.494 100.98 627.494 103.84C627.494 106.76 629.454 108.24 631.534 108.24C632.974 108.24 633.914 107.46 634.374 106.84V108H635.814V99.7H634.374V100.88ZM631.694 100.78C632.974 100.78 634.454 101.72 634.454 103.86C634.454 105.52 633.454 106.96 631.694 106.96C629.974 106.96 628.974 105.6 628.974 103.84C628.974 101.82 630.274 100.78 631.694 100.78ZM642.422 99.7V103.1L639.302 99.7H637.622L641.222 103.54L637.262 108H639.062L642.142 104.5L642.422 104.78V108H643.862V104.78L644.142 104.5L647.222 108H649.022L645.062 103.54L648.662 99.7H646.982L643.862 103.1V99.7H642.422ZM650.456 108H651.896V104.42H655.816V108H657.256V99.7H655.816V103.1H651.896V99.7H650.456V108ZM663.847 108.24C666.367 108.24 668.247 106.38 668.247 103.88C668.247 101.38 666.387 99.5 663.847 99.5C661.307 99.5 659.447 101.38 659.447 103.88C659.447 106.38 661.327 108.24 663.847 108.24ZM663.847 100.78C665.367 100.78 666.767 101.86 666.767 103.88C666.767 105.88 665.347 106.96 663.847 106.96C662.367 106.96 660.927 105.92 660.927 103.88C660.927 101.86 662.327 100.78 663.847 100.78ZM675.724 99.7V103.4C675.724 104.26 675.684 105.02 675.384 105.6C675.084 106.18 674.564 106.66 673.844 106.68V110.2H675.164V108H681.484V110.2H682.804V106.68H681.564V99.7H675.724ZM680.124 106.68H676.164C676.944 105.98 677.164 105.1 677.164 104.14V101.02H680.124V106.68ZM691.208 99.7H685.368V104.76C685.368 105.26 685.348 105.78 685.088 106.18C684.928 106.44 684.588 106.72 684.048 106.72C683.968 106.72 683.868 106.7 683.728 106.68V108C683.868 108.02 684.028 108.04 684.168 108.04C685.288 108.04 685.908 107.48 686.168 107.16C686.808 106.38 686.808 105.46 686.808 104.76V101.02H689.768V108H691.208V99.7ZM692.972 108H694.692L697.052 104.66H697.932V108H699.372V99.7H696.472C695.652 99.7 694.752 99.74 694.032 100.4C693.572 100.82 693.292 101.48 693.292 102.26C693.292 103.04 693.612 103.6 693.952 103.92C694.552 104.52 695.452 104.58 695.552 104.58L692.972 108ZM697.932 103.46H696.572C696.232 103.46 695.712 103.48 695.292 103.22C694.952 103 694.772 102.68 694.772 102.22C694.772 101.68 695.052 101.36 695.292 101.2C695.592 101.02 696.012 100.98 696.592 100.98H697.932V103.46ZM706.764 108H708.204V104.42H712.124V108H713.564V99.7H712.124V103.1H708.204V99.7H706.764V108ZM722.636 100.88C722.256 100.4 721.396 99.5 719.796 99.5C717.656 99.5 715.756 100.98 715.756 103.84C715.756 106.76 717.716 108.24 719.796 108.24C721.236 108.24 722.176 107.46 722.636 106.84V108H724.076V99.7H722.636V100.88ZM719.956 100.78C721.236 100.78 722.716 101.72 722.716 103.86C722.716 105.52 721.716 106.96 719.956 106.96C718.236 106.96 717.236 105.6 717.236 103.84C717.236 101.82 718.536 100.78 719.956 100.78ZM733.303 100.3C732.903 100 732.063 99.5 730.723 99.5C728.163 99.5 726.283 101.36 726.283 103.9C726.283 106.38 728.143 108.24 730.723 108.24C731.503 108.24 732.463 108.04 733.363 107.38V105.66C732.583 106.6 731.543 106.96 730.683 106.96C729.203 106.96 727.763 105.88 727.763 103.88C727.763 101.86 729.163 100.78 730.703 100.78C731.443 100.78 732.523 101.06 733.303 102.02V100.3ZM740.241 99.7V108.58L745.921 102.46V108H747.361V99.06L741.681 105.18V99.7H740.241ZM753.793 108H755.273L756.333 102.86L759.193 108.58L762.013 102.86L763.113 108H764.593L762.593 99.06L759.233 105.82L755.793 99.06L753.793 108ZM766.354 108H769.254C770.074 108 770.954 107.98 771.694 107.3C772.074 106.96 772.434 106.34 772.434 105.44C772.434 104.58 772.114 104.02 771.794 103.7C771.054 102.96 770.014 102.88 769.274 102.88H767.794V99.7H766.354V108ZM767.794 106.72V104.16H769.154C769.614 104.16 770.054 104.16 770.434 104.4C770.854 104.66 770.954 105.06 770.954 105.44C770.954 106.08 770.594 106.36 770.414 106.5C770.074 106.72 769.614 106.72 769.134 106.72H767.794ZM773.434 108H774.874V99.7H773.434V108ZM788.753 100.3C788.353 100 787.513 99.5 786.173 99.5C783.613 99.5 781.733 101.36 781.733 103.9C781.733 106.38 783.593 108.24 786.173 108.24C786.953 108.24 787.913 108.04 788.813 107.38V105.66C788.033 106.6 786.993 106.96 786.133 106.96C784.653 106.96 783.213 105.88 783.213 103.88C783.213 101.86 784.613 100.78 786.153 100.78C786.893 100.78 787.973 101.06 788.753 102.02V100.3ZM796.462 101.02V99.7H789.822V101.02H792.422V108H793.862V101.02H796.462ZM799.415 106.84C800.035 107.64 800.955 108.24 802.315 108.24C804.815 108.24 806.295 106.18 806.295 103.9C806.295 101.66 804.855 99.5 802.255 99.5C801.655 99.5 800.375 99.62 799.415 100.86V99.7H797.975V112.6H799.415V106.84ZM802.115 106.96C800.435 106.96 799.335 105.58 799.335 103.88C799.335 101.88 800.735 100.78 802.095 100.78C803.435 100.78 804.815 101.86 804.815 103.9C804.815 105.58 803.795 106.96 802.115 106.96ZM814.663 105.22C814.483 105.62 814.183 106.04 813.803 106.36C813.323 106.76 812.763 106.96 812.103 106.96C810.663 106.96 809.463 105.84 809.463 104.14H815.923C815.983 103.02 815.683 101.76 815.143 101.02C814.643 100.3 813.623 99.5 812.003 99.5C809.523 99.5 807.983 101.42 807.983 103.9C807.983 107 810.083 108.24 812.083 108.24C813.163 108.24 814.083 107.9 814.843 107.22C815.263 106.84 815.623 106.34 815.863 105.88L814.663 105.22ZM809.563 102.94C809.783 101.68 810.783 100.78 812.003 100.78C813.223 100.78 814.203 101.64 814.443 102.94H809.563ZM817.171 108H818.651L819.711 102.86L822.571 108.58L825.391 102.86L826.491 108H827.971L825.971 99.06L822.611 105.82L819.171 99.06L817.171 108ZM829.733 99.7V108.58L835.413 102.46V108H836.853V99.06L831.173 105.18V99.7H829.733ZM838.617 108H840.097L841.157 102.86L844.017 108.58L846.837 102.86L847.937 108H849.417L847.417 99.06L844.057 105.82L840.617 99.06L838.617 108ZM857.678 100.3C857.278 100 856.438 99.5 855.098 99.5C852.538 99.5 850.658 101.36 850.658 103.9C850.658 106.38 852.518 108.24 855.098 108.24C855.878 108.24 856.838 108.04 857.738 107.38V105.66C856.958 106.6 855.918 106.96 855.058 106.96C853.578 106.96 852.138 105.88 852.138 103.88C852.138 101.86 853.538 100.78 855.078 100.78C855.818 100.78 856.898 101.06 857.678 102.02V100.3ZM858.988 108H860.708L863.068 104.66H863.948V108H865.388V99.7H862.488C861.668 99.7 860.768 99.74 860.048 100.4C859.588 100.82 859.308 101.48 859.308 102.26C859.308 103.04 859.628 103.6 859.968 103.92C860.568 104.52 861.468 104.58 861.568 104.58L858.988 108ZM863.948 103.46H862.588C862.248 103.46 861.728 103.48 861.308 103.22C860.968 103 860.788 102.68 860.788 102.22C860.788 101.68 861.068 101.36 861.308 101.2C861.608 101.02 862.028 100.98 862.608 100.98H863.948V103.46ZM876.66 108.24C879.18 108.24 881.06 106.38 881.06 103.88C881.06 101.38 879.2 99.5 876.66 99.5C874.12 99.5 872.26 101.38 872.26 103.88C872.26 106.38 874.14 108.24 876.66 108.24ZM876.66 100.78C878.18 100.78 879.58 101.86 879.58 103.88C879.58 105.88 878.16 106.96 876.66 106.96C875.18 106.96 873.74 105.92 873.74 103.88C873.74 101.86 875.14 100.78 876.66 100.78ZM883.268 99.7V108H884.708V104.78L885.148 104.36L888.388 108H890.268L886.228 103.4L889.828 99.7H888.068L884.708 103.1V99.7H883.268ZM898.066 100.88C897.686 100.4 896.826 99.5 895.226 99.5C893.086 99.5 891.186 100.98 891.186 103.84C891.186 106.76 893.146 108.24 895.226 108.24C896.666 108.24 897.606 107.46 898.066 106.84V108H899.506V99.7H898.066V100.88ZM895.386 100.78C896.666 100.78 898.146 101.72 898.146 103.86C898.146 105.52 897.146 106.96 895.386 106.96C893.666 106.96 892.666 105.6 892.666 103.84C892.666 101.82 893.966 100.78 895.386 100.78ZM903.313 101.82C903.533 101.44 903.773 101.24 903.993 101.1C904.413 100.84 904.813 100.78 905.133 100.78C905.393 100.78 905.853 100.78 906.193 101.08C906.433 101.28 906.553 101.56 906.553 101.94C906.553 102.32 906.333 102.56 906.113 102.7C905.973 102.78 905.693 102.92 905.033 102.92H904.333V104.24H905.173C905.553 104.24 906.113 104.22 906.533 104.52C906.833 104.7 907.033 105.02 907.033 105.48C907.033 106.1 906.753 106.46 906.453 106.64C905.993 106.94 905.373 106.96 905.053 106.96C904.593 106.96 904.153 106.88 903.693 106.54C903.233 106.2 903.033 105.82 902.953 105.6L901.713 106.12C901.953 106.66 902.333 107.16 902.813 107.54C903.513 108.08 904.293 108.24 905.033 108.24C905.933 108.24 906.773 108.06 907.393 107.6C908.093 107.1 908.473 106.32 908.473 105.46C908.473 104.82 908.233 104.32 907.893 103.94C907.673 103.72 907.353 103.5 906.933 103.4C907.353 103.14 907.873 102.64 907.873 101.66C907.873 101.08 907.693 100.54 907.153 100.08C906.533 99.54 905.853 99.5 905.193 99.5C904.653 99.5 904.013 99.58 903.373 99.96C902.973 100.2 902.613 100.6 902.313 101L903.313 101.82ZM917.031 100.88C916.651 100.4 915.791 99.5 914.191 99.5C912.051 99.5 910.151 100.98 910.151 103.84C910.151 106.76 912.111 108.24 914.191 108.24C915.631 108.24 916.571 107.46 917.031 106.84V108H918.471V99.7H917.031V100.88ZM914.351 100.78C915.631 100.78 917.111 101.72 917.111 103.86C917.111 105.52 916.111 106.96 914.351 106.96C912.631 106.96 911.631 105.6 911.631 103.84C911.631 101.82 912.931 100.78 914.351 100.78ZM926.638 101.02V99.7H919.998V101.02H922.598V108H924.038V101.02H926.638ZM928.151 108H931.051C931.871 108 932.751 107.98 933.491 107.3C933.871 106.96 934.231 106.34 934.231 105.44C934.231 104.58 933.911 104.02 933.591 103.7C932.851 102.96 931.811 102.88 931.071 102.88H929.591V99.7H928.151V108ZM929.591 106.72V104.16H930.951C931.411 104.16 931.851 104.16 932.231 104.4C932.651 104.66 932.751 105.06 932.751 105.44C932.751 106.08 932.391 106.36 932.211 106.5C931.871 106.72 931.411 106.72 930.931 106.72H929.591ZM381.276 134H382.716V130.42H386.636V134H388.076V125.7H386.636V129.1H382.716V125.7H381.276V134ZM397.148 126.88C396.768 126.4 395.908 125.5 394.308 125.5C392.168 125.5 390.268 126.98 390.268 129.84C390.268 132.76 392.228 134.24 394.308 134.24C395.748 134.24 396.688 133.46 397.148 132.84V134H398.588V125.7H397.148V126.88ZM394.468 126.78C395.748 126.78 397.228 127.72 397.228 129.86C397.228 131.52 396.228 132.96 394.468 132.96C392.748 132.96 391.748 131.6 391.748 129.84C391.748 127.82 393.048 126.78 394.468 126.78ZM401.315 125.7V134.58L406.995 128.46V134H408.435V125.06L402.755 131.18V125.7H401.315ZM417.439 125.7H411.599V130.76C411.599 131.26 411.579 131.78 411.319 132.18C411.159 132.44 410.819 132.72 410.279 132.72C410.199 132.72 410.099 132.7 409.959 132.68V134C410.099 134.02 410.259 134.04 410.399 134.04C411.519 134.04 412.139 133.48 412.399 133.16C413.039 132.38 413.039 131.46 413.039 130.76V127.02H415.999V134H417.439V125.7ZM420.143 138.6H421.743L427.843 125.7H426.243L423.543 131.64L420.603 125.7H418.963L422.783 133.22L420.143 138.6ZM433.607 134H435.047V125.7H433.607V129.42C432.987 129.54 432.387 129.6 431.807 129.6C431.347 129.6 430.807 129.56 430.547 129.06C430.407 128.82 430.367 128.38 430.367 128.08V125.7H428.927V128.28C428.927 129.08 429.067 129.82 429.627 130.32C430.267 130.9 431.247 130.92 431.647 130.92C432.227 130.92 433.067 130.82 433.607 130.74V134ZM437.76 134H448.48V125.7H447.04V132.68H443.84V125.7H442.4V132.68H439.2V125.7H437.76V134ZM451.178 138.6H452.778L458.878 125.7H457.278L454.578 131.64L451.638 125.7H449.998L453.818 133.22L451.178 138.6ZM461.837 129.1V125.7H460.397V134H461.837V130.42H463.257C463.357 131.44 463.777 132.18 464.177 132.68C464.797 133.46 465.857 134.24 467.597 134.24C470.137 134.24 471.997 132.38 471.997 129.88C471.997 127.38 470.157 125.5 467.597 125.5C466.257 125.5 465.177 125.96 464.457 126.74C463.917 127.28 463.477 128.08 463.337 129.1H461.837ZM467.597 126.78C469.117 126.78 470.517 127.86 470.517 129.88C470.517 131.88 469.097 132.96 467.597 132.96C466.137 132.96 464.737 131.92 464.737 129.88C464.737 127.9 466.057 126.78 467.597 126.78ZM478.874 125.7V134H482.454C483.114 134 483.914 133.82 484.414 133.44C484.874 133.06 485.274 132.44 485.274 131.56C485.274 130.92 485.054 130.38 484.614 129.96C484.214 129.58 483.814 129.46 483.574 129.4C484.074 129.08 484.474 128.56 484.474 127.74C484.474 126.88 484.054 126.42 483.754 126.18C483.174 125.72 482.474 125.7 482.014 125.7H478.874ZM480.314 129.08V126.98H481.594C482.054 126.98 482.414 126.96 482.754 127.18C482.974 127.34 483.154 127.58 483.154 127.98C483.154 128.48 482.914 128.7 482.754 128.84C482.434 129.06 481.974 129.08 481.834 129.08H480.314ZM480.314 132.72V130.28H482.154C482.554 130.28 483.074 130.28 483.454 130.58C483.734 130.8 483.874 131.12 483.874 131.52C483.874 131.9 483.654 132.22 483.394 132.44C483.014 132.7 482.494 132.72 482.094 132.72H480.314ZM491.347 134.24C493.867 134.24 495.747 132.38 495.747 129.88C495.747 127.38 493.887 125.5 491.347 125.5C488.807 125.5 486.947 127.38 486.947 129.88C486.947 132.38 488.827 134.24 491.347 134.24ZM491.347 126.78C492.867 126.78 494.267 127.86 494.267 129.88C494.267 131.88 492.847 132.96 491.347 132.96C489.867 132.96 488.427 131.92 488.427 129.88C488.427 127.86 489.827 126.78 491.347 126.78ZM499.036 127.82C499.256 127.44 499.496 127.24 499.716 127.1C500.136 126.84 500.536 126.78 500.856 126.78C501.116 126.78 501.576 126.78 501.916 127.08C502.156 127.28 502.276 127.56 502.276 127.94C502.276 128.32 502.056 128.56 501.836 128.7C501.696 128.78 501.416 128.92 500.756 128.92H500.056V130.24H500.896C501.276 130.24 501.836 130.22 502.256 130.52C502.556 130.7 502.756 131.02 502.756 131.48C502.756 132.1 502.476 132.46 502.176 132.64C501.716 132.94 501.096 132.96 500.776 132.96C500.316 132.96 499.876 132.88 499.416 132.54C498.956 132.2 498.756 131.82 498.676 131.6L497.436 132.12C497.676 132.66 498.056 133.16 498.536 133.54C499.236 134.08 500.016 134.24 500.756 134.24C501.656 134.24 502.496 134.06 503.116 133.6C503.816 133.1 504.196 132.32 504.196 131.46C504.196 130.82 503.956 130.32 503.616 129.94C503.396 129.72 503.076 129.5 502.656 129.4C503.076 129.14 503.596 128.64 503.596 127.66C503.596 127.08 503.416 126.54 502.876 126.08C502.256 125.54 501.576 125.5 500.916 125.5C500.376 125.5 499.736 125.58 499.096 125.96C498.696 126.2 498.336 126.6 498.036 127L499.036 127.82ZM505.433 134H506.913L507.973 128.86L510.833 134.58L513.653 128.86L514.753 134H516.233L514.233 125.06L510.873 131.82L507.433 125.06L505.433 134ZM521.875 134.24C524.395 134.24 526.275 132.38 526.275 129.88C526.275 127.38 524.415 125.5 521.875 125.5C519.335 125.5 517.475 127.38 517.475 129.88C517.475 132.38 519.355 134.24 521.875 134.24ZM521.875 126.78C523.395 126.78 524.795 127.86 524.795 129.88C524.795 131.88 523.375 132.96 521.875 132.96C520.395 132.96 518.955 131.92 518.955 129.88C518.955 127.86 520.355 126.78 521.875 126.78ZM532.363 125.7V129.1L529.243 125.7H527.563L531.163 129.54L527.203 134H529.003L532.083 130.5L532.363 130.78V134H533.803V130.78L534.083 130.5L537.163 134H538.963L535.003 129.54L538.603 125.7H536.923L533.803 129.1V125.7H532.363ZM540.397 134H541.837V130.42H545.757V134H547.197V125.7H545.757V129.1H541.837V125.7H540.397V134ZM549.889 138.6H551.489L557.589 125.7H555.989L553.289 131.64L550.349 125.7H548.709L552.529 133.22L549.889 138.6ZM560.548 129.1V125.7H559.108V134H560.548V130.42H561.968C562.068 131.44 562.488 132.18 562.888 132.68C563.508 133.46 564.568 134.24 566.308 134.24C568.848 134.24 570.708 132.38 570.708 129.88C570.708 127.38 568.868 125.5 566.308 125.5C564.968 125.5 563.888 125.96 563.168 126.74C562.628 127.28 562.188 128.08 562.048 129.1H560.548ZM566.308 126.78C567.828 126.78 569.228 127.86 569.228 129.88C569.228 131.88 567.808 132.96 566.308 132.96C564.848 132.96 563.448 131.92 563.448 129.88C563.448 127.9 564.768 126.78 566.308 126.78ZM577.585 125.7V134H581.165C581.825 134 582.625 133.82 583.125 133.44C583.585 133.06 583.985 132.44 583.985 131.56C583.985 130.92 583.765 130.38 583.325 129.96C582.925 129.58 582.525 129.46 582.285 129.4C582.785 129.08 583.185 128.56 583.185 127.74C583.185 126.88 582.765 126.42 582.465 126.18C581.885 125.72 581.185 125.7 580.725 125.7H577.585ZM579.025 129.08V126.98H580.305C580.765 126.98 581.125 126.96 581.465 127.18C581.685 127.34 581.865 127.58 581.865 127.98C581.865 128.48 581.625 128.7 581.465 128.84C581.145 129.06 580.685 129.08 580.545 129.08H579.025ZM579.025 132.72V130.28H580.865C581.265 130.28 581.785 130.28 582.165 130.58C582.445 130.8 582.585 131.12 582.585 131.52C582.585 131.9 582.365 132.22 582.105 132.44C581.725 132.7 581.205 132.72 580.805 132.72H579.025ZM592.338 131.22C592.158 131.62 591.858 132.04 591.478 132.36C590.998 132.76 590.438 132.96 589.778 132.96C588.338 132.96 587.138 131.84 587.138 130.14H593.598C593.658 129.02 593.358 127.76 592.818 127.02C592.318 126.3 591.298 125.5 589.678 125.5C587.198 125.5 585.658 127.42 585.658 129.9C585.658 133 587.758 134.24 589.758 134.24C590.838 134.24 591.758 133.9 592.518 133.22C592.938 132.84 593.298 132.34 593.538 131.88L592.338 131.22ZM587.238 128.94C587.458 127.68 588.458 126.78 589.678 126.78C590.898 126.78 591.878 127.64 592.118 128.94H587.238ZM601.247 127.02V125.7H594.607V127.02H597.207V134H598.647V127.02H601.247ZM608.725 131.22C608.545 131.62 608.245 132.04 607.865 132.36C607.385 132.76 606.825 132.96 606.165 132.96C604.725 132.96 603.525 131.84 603.525 130.14H609.985C610.045 129.02 609.745 127.76 609.205 127.02C608.705 126.3 607.685 125.5 606.065 125.5C603.585 125.5 602.045 127.42 602.045 129.9C602.045 133 604.145 134.24 606.145 134.24C607.225 134.24 608.145 133.9 608.905 133.22C609.325 132.84 609.685 132.34 609.925 131.88L608.725 131.22ZM603.625 128.94C603.845 127.68 604.845 126.78 606.065 126.78C607.285 126.78 608.265 127.64 608.505 128.94H603.625ZM613.634 132.84C614.254 133.64 615.174 134.24 616.534 134.24C619.034 134.24 620.514 132.18 620.514 129.9C620.514 127.66 619.074 125.5 616.474 125.5C615.874 125.5 614.594 125.62 613.634 126.86V125.7H612.194V138.6H613.634V132.84ZM616.334 132.96C614.654 132.96 613.554 131.58 613.554 129.88C613.554 127.88 614.954 126.78 616.314 126.78C617.654 126.78 619.034 127.86 619.034 129.9C619.034 131.58 618.014 132.96 616.334 132.96ZM622.721 125.7V134.58L628.401 128.46V134H629.841V125.06L624.161 131.18V125.7H622.721ZM632.565 134H634.005V130.42H637.925V134H639.365V125.7H637.925V129.1H634.005V125.7H632.565V134ZM648.437 126.88C648.057 126.4 647.197 125.5 645.597 125.5C643.457 125.5 641.557 126.98 641.557 129.84C641.557 132.76 643.517 134.24 645.597 134.24C647.037 134.24 647.977 133.46 648.437 132.84V134H649.877V125.7H648.437V126.88ZM645.757 126.78C647.037 126.78 648.517 127.72 648.517 129.86C648.517 131.52 647.517 132.96 645.757 132.96C644.037 132.96 643.037 131.6 643.037 129.84C643.037 127.82 644.337 126.78 645.757 126.78ZM654.044 132.84C654.664 133.64 655.584 134.24 656.944 134.24C659.444 134.24 660.924 132.18 660.924 129.9C660.924 127.66 659.484 125.5 656.884 125.5C656.284 125.5 655.004 125.62 654.044 126.86V125.7H652.604V138.6H654.044V132.84ZM656.744 132.96C655.064 132.96 653.964 131.58 653.964 129.88C653.964 127.88 655.364 126.78 656.724 126.78C658.064 126.78 659.444 127.86 659.444 129.9C659.444 131.58 658.424 132.96 656.744 132.96ZM663.131 134H664.571V130.42H668.491V134H669.931V125.7H668.491V129.1H664.571V125.7H663.131V134ZM672.623 138.6H674.223L680.323 125.7H678.723L676.023 131.64L673.083 125.7H671.443L675.263 133.22L672.623 138.6ZM683.282 129.1V125.7H681.842V134H683.282V130.42H684.702C684.802 131.44 685.222 132.18 685.622 132.68C686.242 133.46 687.302 134.24 689.042 134.24C691.582 134.24 693.442 132.38 693.442 129.88C693.442 127.38 691.602 125.5 689.042 125.5C687.702 125.5 686.622 125.96 685.902 126.74C685.362 127.28 684.922 128.08 684.782 129.1H683.282ZM689.042 126.78C690.562 126.78 691.962 127.86 691.962 129.88C691.962 131.88 690.542 132.96 689.042 132.96C687.582 132.96 686.182 131.92 686.182 129.88C686.182 127.9 687.502 126.78 689.042 126.78ZM700.319 125.7V134H701.759V127.02H705.559V134H706.999V125.7H700.319ZM713.594 134.24C716.114 134.24 717.994 132.38 717.994 129.88C717.994 127.38 716.134 125.5 713.594 125.5C711.054 125.5 709.194 127.38 709.194 129.88C709.194 132.38 711.074 134.24 713.594 134.24ZM713.594 126.78C715.114 126.78 716.514 127.86 716.514 129.88C716.514 131.88 715.094 132.96 713.594 132.96C712.114 132.96 710.674 131.92 710.674 129.88C710.674 127.86 712.074 126.78 713.594 126.78ZM719.242 134H720.722L721.782 128.86L724.642 134.58L727.462 128.86L728.562 134H730.042L728.042 125.06L724.682 131.82L721.242 125.06L719.242 134ZM735.683 134.24C738.203 134.24 740.083 132.38 740.083 129.88C740.083 127.38 738.223 125.5 735.683 125.5C733.143 125.5 731.283 127.38 731.283 129.88C731.283 132.38 733.163 134.24 735.683 134.24ZM735.683 126.78C737.203 126.78 738.603 127.86 738.603 129.88C738.603 131.88 737.183 132.96 735.683 132.96C734.203 132.96 732.763 131.92 732.763 129.88C732.763 127.86 734.163 126.78 735.683 126.78ZM742.292 134H753.052V136.2H754.372V132.68H753.012V125.7H751.572V132.68H748.372V125.7H746.932V132.68H743.732V125.7H742.292V134ZM755.885 134H758.785C759.605 134 760.485 133.98 761.225 133.3C761.605 132.96 761.965 132.34 761.965 131.44C761.965 130.58 761.645 130.02 761.325 129.7C760.585 128.96 759.545 128.88 758.805 128.88H757.325V125.7H755.885V134ZM757.325 132.72V130.16H758.685C759.145 130.16 759.585 130.16 759.965 130.4C760.385 130.66 760.485 131.06 760.485 131.44C760.485 132.08 760.125 132.36 759.945 132.5C759.605 132.72 759.145 132.72 758.665 132.72H757.325ZM763.813 133.2C763.813 133.74 764.273 134.2 764.813 134.2C765.353 134.2 765.813 133.74 765.813 133.2C765.813 132.66 765.353 132.2 764.813 132.2C764.273 132.2 763.813 132.66 763.813 133.2Z" fill="#949494"/>
<path d="M139.6 64.4L134.6 71.2C132.6 72 130.667 72.4 128.8 72.4C127.733 72.4 126.533 72.2 125.2 71.8C124 71.2667 122.867 70.6 121.8 69.8C120.733 68.8667 119.8 67.7333 119 66.4C118.333 65.0667 118 63.5333 118 61.8C118 59.8 118.2 57.7333 118.6 55.6C119 53.4667 119.733 51.1333 120.8 48.6C122 46.0667 123.6 43.4 125.6 40.6C127.733 37.8 130.467 34.7333 133.8 31.4C134.2 31.4 134.533 31.4 134.8 31.4C135.2 31.2667 135.533 31.2 135.8 31.2C138.067 31.2 139.333 32.2 139.6 34.2C139.467 34.7333 139.067 35.5333 138.4 36.6C137.867 37.6667 137.2 38.7333 136.4 39.8C135.733 40.8667 135.067 41.8667 134.4 42.8C133.867 43.6 133.533 44.0667 133.4 44.2C131.933 46.8667 130.933 49.8667 130.4 53.2H131.4C132.2 53.2 133 53.3333 133.8 53.6C134.733 53.7333 135.6 54.2 136.4 55C137.2 55.8 137.867 56.9333 138.4 58.4C139.067 59.8667 139.467 61.8667 139.6 64.4ZM111.6 64.4L106.6 71.2C104.6 72 102.667 72.4 100.8 72.4C99.7333 72.4 98.5333 72.2 97.2 71.8C96 71.2667 94.8667 70.6 93.8 69.8C92.7333 68.8667 91.8 67.7333 91 66.4C90.3333 65.0667 90 63.5333 90 61.8C90 59.8 90.2 57.7333 90.6 55.6C91 53.4667 91.7333 51.1333 92.8 48.6C94 46.0667 95.6 43.4 97.6 40.6C99.7333 37.8 102.467 34.7333 105.8 31.4C106.2 31.4 106.533 31.4 106.8 31.4C107.2 31.2667 107.533 31.2 107.8 31.2C110.067 31.2 111.333 32.2 111.6 34.2C111.467 34.7333 111.067 35.5333 110.4 36.6C109.867 37.6667 109.2 38.7333 108.4 39.8C107.733 40.8667 107.067 41.8667 106.4 42.8C105.867 43.6 105.533 44.0667 105.4 44.2C103.933 46.8667 102.933 49.8667 102.4 53.2H103.4C104.2 53.2 105 53.3333 105.8 53.6C106.733 53.7333 107.6 54.2 108.4 55C109.2 55.8 109.867 56.9333 110.4 58.4C111.067 59.8667 111.467 61.8667 111.6 64.4Z" fill="#DBDBDB"/>
<path d="M994.463 108.6L999.462 101.8C1001.46 101 1003.4 100.6 1005.26 100.6C1006.33 100.6 1007.53 100.8 1008.86 101.2C1010.06 101.733 1011.2 102.4 1012.26 103.2C1013.33 104.133 1014.26 105.267 1015.06 106.6C1015.73 107.933 1016.06 109.467 1016.06 111.2C1016.06 113.2 1015.86 115.267 1015.46 117.4C1015.06 119.533 1014.33 121.867 1013.26 124.4C1012.06 126.933 1010.46 129.6 1008.46 132.4C1006.33 135.2 1003.6 138.267 1000.26 141.6C999.862 141.6 999.529 141.6 999.262 141.6C998.862 141.733 998.529 141.8 998.262 141.8C995.996 141.8 994.729 140.8 994.463 138.8C994.596 138.267 994.996 137.467 995.662 136.4C996.196 135.333 996.862 134.267 997.662 133.2C998.329 132.133 998.996 131.133 999.662 130.2C1000.2 129.4 1000.53 128.933 1000.66 128.8C1002.13 126.133 1003.13 123.133 1003.66 119.8L1002.66 119.8C1001.86 119.8 1001.06 119.667 1000.26 119.4C999.329 119.267 998.462 118.8 997.662 118C996.862 117.2 996.196 116.067 995.662 114.6C994.996 113.133 994.596 111.133 994.463 108.6ZM1022.46 108.6L1027.46 101.8C1029.46 101 1031.4 100.6 1033.26 100.6C1034.33 100.6 1035.53 100.8 1036.86 101.2C1038.06 101.733 1039.2 102.4 1040.26 103.2C1041.33 104.133 1042.26 105.267 1043.06 106.6C1043.73 107.933 1044.06 109.467 1044.06 111.2C1044.06 113.2 1043.86 115.267 1043.46 117.4C1043.06 119.533 1042.33 121.867 1041.26 124.4C1040.06 126.933 1038.46 129.6 1036.46 132.4C1034.33 135.2 1031.6 138.267 1028.26 141.6C1027.86 141.6 1027.53 141.6 1027.26 141.6C1026.86 141.733 1026.53 141.8 1026.26 141.8C1024 141.8 1022.73 140.8 1022.46 138.8C1022.6 138.267 1023 137.467 1023.66 136.4C1024.2 135.333 1024.86 134.267 1025.66 133.2C1026.33 132.133 1027 131.133 1027.66 130.2C1028.2 129.4 1028.53 128.933 1028.66 128.8C1030.13 126.133 1031.13 123.133 1031.66 119.8L1030.66 119.8C1029.86 119.8 1029.06 119.667 1028.26 119.4C1027.33 119.267 1026.46 118.8 1025.66 118C1024.86 117.2 1024.2 116.067 1023.66 114.6C1023 113.133 1022.6 111.133 1022.46 108.6Z" fill="#DBDBDB"/>
<line x1="465" y1="20.5" x2="605" y2="20.5" stroke="#DBDBDB"/>
<line x1="465" y1="176.5" x2="605" y2="176.5" stroke="#DBDBDB"/>
</svg>
